<?xml version="1.0" encoding="utf-8"?>
<!-- Generator: Adobe Illustrator 23.0.3, SVG Export Plug-In . SVG Version: 6.00 Build 0)  -->
<svg version="1.1" xmlns="http://www.w3.org/2000/svg" xmlns:xlink="http://www.w3.org/1999/xlink" x="0px" y="0px"
	 viewBox="0 0 480.4 61" style="enable-background:new 0 0 480.4 61;" xml:space="preserve">
<style type="text/css">
	.st0{fill:#FFFFFF;}
	.st1{display:none;clip-path:url(#SVGID_2_);}
	.st2{display:inline;}
	.st3{display:inline;clip-path:url(#SVGID_4_);}
	.st4{clip-path:url(#SVGID_8_);}
	.st5{clip-path:url(#SVGID_12_);}
	.st6{clip-path:url(#SVGID_16_);}
	.st7{clip-path:url(#SVGID_20_);}
	.st8{fill:none;}
	.st9{fill:#EBE0DC;}
	.st10{display:none;clip-path:url(#SVGID_24_);}
	.st11{display:inline;clip-path:url(#SVGID_26_);}
	.st12{fill:#F6F1EF;}
	.st13{display:none;clip-path:url(#SVGID_30_);}
	.st14{display:inline;clip-path:url(#SVGID_32_);}
	.st15{clip-path:url(#SVGID_36_);}
	.st16{clip-path:url(#SVGID_38_);}
	.st17{display:none;clip-path:url(#SVGID_36_);}
	.st18{display:inline;clip-path:url(#SVGID_42_);}
	.st19{fill:#343333;}
	.st20{display:none;}
	.st21{fill:#3E433D;}
	.st22{fill:#30332F;}
</style>
<g id="Layer_1">
	<g>
		<defs>
			<rect id="SVGID_29_" x="-208.1" y="191.5" width="1920" height="1075"/>
		</defs>
		<clipPath id="SVGID_2_">
			<use xlink:href="#SVGID_29_"  style="overflow:visible;"/>
		</clipPath>
		<g transform="matrix(1 0 0 1 0 -6.103516e-05)" style="clip-path:url(#SVGID_2_);">
			
				<image style="overflow:visible;" width="1800" height="1800" xlink:href="armonia centro grande.png"  transform="matrix(-0.6958 4.889216e-02 -4.889216e-02 -0.6958 802.4435 862.0134)">
			</image>
		</g>
		<g class="st1">
			<defs>
				
					<rect id="SVGID_31_" x="-116.5" y="-233.4" transform="matrix(-0.1642 0.9864 -0.9864 -0.1642 352.6771 120.7743)" width="483.4" height="886.4"/>
			</defs>
			<clipPath id="SVGID_4_" class="st2">
				<use xlink:href="#SVGID_31_"  style="overflow:visible;"/>
			</clipPath>
			<g id="_x30_279edit.tif_5_" class="st3">
				<defs>
					
						<rect id="SVGID_33_" x="-505.7" y="-583.1" transform="matrix(0.1642 -0.9864 0.9864 0.1642 272.6931 54.9743)" width="1349" height="899.3"/>
				</defs>
				<clipPath id="SVGID_6_">
					<use xlink:href="#SVGID_33_"  style="overflow:visible;"/>
				</clipPath>
				<g transform="matrix(1 0 0 1 -6.103516e-05 0)" style="clip-path:url(#SVGID_6_);">
					
						<image style="overflow:visible;" width="3504" height="2336" id="_x30_279edit_2_" xlink:href="50B63352.jpg"  transform="matrix(-6.321324e-02 0.3798 -0.3798 -6.321324e-02 723.0994 -724.9417)">
					</image>
				</g>
			</g>
		</g>
	</g>
	<g>
		<defs>
			<rect id="SVGID_35_" x="-208.1" y="-1275.5" width="1920" height="1075"/>
		</defs>
		<clipPath id="SVGID_8_">
			<use xlink:href="#SVGID_35_"  style="overflow:visible;"/>
		</clipPath>
		<g transform="matrix(1 1.862645e-09 -1.862645e-09 1 0 0)" class="st4">
			
				<image style="overflow:visible;" width="1800" height="1800" xlink:href="armonia centro grande.png"  transform="matrix(0.8336 1.668126e-02 -1.668126e-02 0.8336 401.0814 -1061.3691)">
			</image>
		</g>
	</g>
</g>
<g id="Layer_2">
	<g>
		<g>
			<path class="st19" d="M0,1.2h17.5c14.1,0,21.7,3.9,21.7,14.4c0,7.9-4.3,11.8-8.6,13.4c5.6,1.6,11.1,5.5,11.1,14.2
				c0,13.7-12,16.7-23.1,16.7H0V1.2z M8.5,26.3H18c7.9,0,12-2.3,12-9.1c0-7.9-6-8.7-14.8-8.7H8.5V26.3z M8.5,52.6h12.1
				c6.6,0,12.1-2.5,12.1-9.7c0-7.2-5.4-9.6-13.9-9.6H8.5V52.6z"/>
		</g>
		<g>
			<path class="st19" d="M52.5,1.2h36.7v7.5h-28v17.4h26.1v7.5H61.2v18.8h28.6v7.5H52.5V1.2z"/>
		</g>
		<g>
			<path class="st19" d="M105.2,43.2c1.1,6.2,5.1,10.9,13.5,10.9c7.8,0,12.4-3.9,12.4-9.8c0-6.4-5.1-7.9-11.9-10.1l-3.9-1.2
				c-10.6-3.3-17.1-7.5-17.1-16.8c0-9.5,8.2-16.2,20.3-16.2c12.5,0,19.4,6.3,20.4,16.4h-8.9c-1-5.9-4.7-9.3-11.8-9.3
				c-6.9,0-10.8,3.4-10.8,8.3c0,6.1,5.2,8,11.6,9.9l4.1,1.2c10.3,3,17.1,6.9,17.1,16.6c0,10.7-8.9,17.8-21.6,17.8
				c-13.2,0-21.5-6.6-22.2-17.8H105.2z"/>
		</g>
		<g>
			<path class="st19" d="M155.3,43.2c1.1,6.2,5.1,10.9,13.5,10.9c7.8,0,12.4-3.9,12.4-9.8c0-6.4-5.1-7.9-11.9-10.1l-3.9-1.2
				c-10.6-3.3-17.1-7.5-17.1-16.8c0-9.5,8.2-16.2,20.3-16.2c12.5,0,19.4,6.3,20.4,16.4h-8.9c-1-5.9-4.7-9.3-11.8-9.3
				c-6.9,0-10.8,3.4-10.8,8.3c0,6.1,5.2,8,11.6,9.9l4.1,1.2c10.3,3,17.1,6.9,17.1,16.6c0,10.7-8.9,17.8-21.6,17.8
				c-13.2,0-21.5-6.6-22.2-17.8H155.3z"/>
		</g>
		<g>
			<path class="st19" d="M200.8,1.2h8.6v58.6h-8.6V1.2z"/>
		</g>
		<g>
			<path class="st19" d="M227.8,21h-7.1l5.6-19.8h8.5L227.8,21z"/>
		</g>
		<g>
			<path class="st19" d="M249,43.2c1.1,6.2,5.1,10.9,13.5,10.9c7.8,0,12.4-3.9,12.4-9.8c0-6.4-5.1-7.9-11.9-10.1l-3.9-1.2
				c-10.6-3.3-17.1-7.5-17.1-16.8c0-9.5,8.2-16.2,20.3-16.2c12.5,0,19.4,6.3,20.4,16.4H274c-1-5.9-4.7-9.3-11.8-9.3
				c-6.9,0-10.8,3.4-10.8,8.3c0,6.1,5.2,8,11.6,9.9l4.1,1.2c10.3,3,17.1,6.9,17.1,16.6C284,54,275.2,61,262.5,61
				c-13.2,0-21.5-6.6-22.2-17.8H249z"/>
		</g>
		<g>
			<path class="st19" d="M303.7,16.8h8v6.4h-8V49c0,4.2,2,5.3,5.2,5.3c0.6,0,1.5-0.1,2-0.2v6.2c-1.2,0.2-2.1,0.3-3.2,0.3
				c-7.6,0-12.5-2.5-12.5-11.2V23.2h-6.5v-6.4h6.5V5.2h8.4V16.8z"/>
		</g>
		<g>
			<path class="st19" d="M347.9,53.7c-2.2,3.7-6.5,7.2-13.7,7.2c-10.1,0-14.9-6.1-14.9-17.3V16.8h8.3v23.7c0,8.5,2.7,13.5,9.5,13.5
				c8.9,0,10.4-8,10.4-17.5V16.8h8.3v39.9c0,1.1,0,2.1,0.1,3.2h-8V53.7z"/>
		</g>
		<g>
			<path class="st19" d="M399.7,59.9v-6.1c-2.5,3.9-7.1,7.1-14.6,7.1c-11.8,0-20-9.2-20-22.6c0-13,7.9-22.7,20.3-22.7
				c6.7,0,11.5,3.4,13.9,6.9c-0.1-1.6-0.1-3-0.1-4.3V1.2h8.3v58.6H399.7z M374,38.3c0,9.6,4.6,15.7,12.7,15.7
				c8.2,0,12.8-6.2,12.8-15.7c0-9.2-4.8-15.8-12.7-15.8C378.7,22.5,374,29.1,374,38.3z"/>
		</g>
		<g>
			<path class="st19" d="M419.2,1.2h8.6v9.3h-8.6V1.2z M427.6,16.8v43.1h-8.3V16.8H427.6z"/>
		</g>
		<g>
			<path class="st19" d="M480.4,38.5c0,13.1-8.1,22.5-21.9,22.5c-13.8,0-21.6-9.3-21.6-22.5c0-13.4,8.4-22.8,21.8-22.8
				C472.1,15.7,480.4,25.1,480.4,38.5z M445.7,38.4c0,9.6,4.6,15.7,12.8,15.7c8.2,0,12.9-6.1,12.9-15.7c0-9.2-4.8-15.8-12.9-15.8
				C450.3,22.5,445.7,29.2,445.7,38.4z"/>
		</g>
	</g>
</g>
</svg>
